<svg xmlns="http://www.w3.org/2000/svg" xmlns:xlink="http://www.w3.org/1999/xlink" width="500" zoomAndPan="magnify" viewBox="0 0 375 374.999991" height="500" preserveAspectRatio="xMidYMid meet" version="1.0"><defs><g/><clipPath id="1b30cbf342"><path d="M 60.289062 14 L 314.539062 14 L 314.539062 260 L 60.289062 260 Z M 60.289062 14 " clip-rule="nonzero"/></clipPath></defs><g clip-path="url(#1b30cbf342)"><path fill="#240784" d="M 212.6875 251.65625 C 212.6875 248.261719 214.910156 245.242188 218.171875 244.304688 C 265.507812 230.765625 299.085938 186.757812 299.027344 136.878906 C 298.96875 87.210938 265.398438 43.359375 218.183594 29.820312 C 214.910156 28.878906 212.6875 25.851562 212.6875 22.445312 C 212.6875 17.339844 217.570312 13.636719 222.480469 15.035156 C 276.402344 30.394531 314.371094 79.703125 314.4375 136.8125 C 314.519531 194.152344 276.535156 243.65625 222.453125 259.042969 C 217.558594 260.441406 212.6875 256.746094 212.6875 251.65625 Z M 162.25 251.65625 C 162.25 248.261719 160.027344 245.242188 156.765625 244.300781 C 109.558594 230.777344 76.015625 186.917969 75.984375 137.242188 C 75.898438 87.359375 109.441406 43.34375 156.765625 29.785156 C 160.027344 28.851562 162.25 25.824219 162.25 22.433594 C 162.25 17.339844 157.375 13.644531 152.476562 15.042969 C 98.410156 30.460938 60.4375 79.960938 60.5 137.277344 C 60.585938 194.410156 98.566406 243.71875 152.476562 259.054688 C 157.375 260.445312 162.25 256.746094 162.25 251.65625 Z M 288.84375 136.894531 C 288.902344 192.902344 243.605469 238.34375 187.664062 238.40625 C 131.6875 238.503906 86.210938 193.199219 86.105469 137.1875 C 86.035156 81.171875 131.371094 35.71875 187.3125 35.660156 C 243.273438 35.5625 288.769531 80.894531 288.84375 136.894531 Z M 216.65625 104.445312 C 216.652344 100.949219 218.652344 97.761719 221.808594 96.261719 L 252.53125 81.625 C 232.605469 58.457031 206.523438 51.527344 187.347656 51.558594 C 140.195312 51.625 101.972656 89.960938 102.046875 137.171875 C 102.0625 151.875 105.800781 165.6875 112.375 177.75 L 112.324219 153.925781 C 112.320312 150.425781 114.332031 147.238281 117.492188 145.734375 L 145.042969 132.675781 C 151.039062 129.835938 157.957031 134.199219 157.964844 140.835938 L 158.078125 204.570312 L 158.078125 217.1875 C 160.222656 217.976562 162.398438 218.703125 164.617188 219.324219 L 164.617188 194.890625 L 164.628906 194.890625 L 164.4375 129.222656 C 164.425781 125.714844 166.445312 122.519531 169.609375 121.019531 L 197.230469 107.945312 C 203.226562 105.109375 210.136719 109.472656 210.148438 116.101562 L 210.292969 194.890625 L 210.3125 194.890625 L 210.3125 219.351562 C 212.542969 218.730469 214.730469 218 216.886719 217.203125 L 216.886719 205.675781 Z M 262.511719 177.941406 C 269.15625 165.757812 272.9375 151.785156 272.910156 136.910156 C 272.894531 122.046875 269.082031 108.0625 262.355469 95.882812 Z M 262.511719 177.941406 " fill-opacity="1" fill-rule="nonzero"/></g><g fill="#240784" fill-opacity="1"><g transform="translate(33.167333, 321.778656)"><g><path d="M 3.90625 0 L 3.90625 -36.65625 L 11.96875 -36.65625 L 11.96875 0 Z M 3.90625 0 "/></g></g></g><g fill="#240784" fill-opacity="1"><g transform="translate(48.012451, 321.778656)"><g><path d="M 18.390625 -24.921875 C 20.015625 -24.921875 21.476562 -24.503906 22.78125 -23.671875 C 24.09375 -22.835938 25.144531 -21.707031 25.9375 -20.28125 C 26.726562 -18.851562 27.125 -17.242188 27.125 -15.453125 L 27.125 0 L 19.359375 0 L 19.359375 -14.171875 C 19.359375 -15.273438 19.003906 -16.191406 18.296875 -16.921875 C 17.585938 -17.648438 16.660156 -18.015625 15.515625 -18.015625 C 14.378906 -18.015625 13.410156 -17.648438 12.609375 -16.921875 C 11.816406 -16.191406 11.421875 -15.273438 11.421875 -14.171875 L 11.421875 0 L 3.609375 0 L 3.609375 -24.4375 L 11.421875 -24.4375 L 11.421875 -21.4375 C 12.273438 -22.5 13.300781 -23.34375 14.5 -23.96875 C 15.707031 -24.601562 17.003906 -24.921875 18.390625 -24.921875 Z M 18.390625 -24.921875 "/></g></g></g><g fill="#240784" fill-opacity="1"><g transform="translate(77.275331, 321.778656)"><g><path d="M 18.328125 -24.4375 L 26.703125 -24.4375 L 16.796875 0 L 9.46875 0 L -0.3125 -24.4375 L 8 -24.4375 L 13.203125 -8.375 Z M 18.328125 -24.4375 "/></g></g></g><g fill="#240784" fill-opacity="1"><g transform="translate(102.689406, 321.778656)"><g><path d="M 28.46875 -12.28125 L 28.46875 -10.9375 L 9.78125 -10.9375 C 9.9375 -9.1875 10.484375 -7.8125 11.421875 -6.8125 C 12.359375 -5.8125 13.703125 -5.3125 15.453125 -5.3125 C 18.140625 -5.3125 19.851562 -6.351562 20.59375 -8.4375 L 28.109375 -8.4375 C 27.492188 -5.78125 26.097656 -3.628906 23.921875 -1.984375 C 21.742188 -0.335938 18.960938 0.484375 15.578125 0.484375 C 12.847656 0.484375 10.453125 -0.0390625 8.390625 -1.09375 C 6.335938 -2.15625 4.738281 -3.644531 3.59375 -5.5625 C 2.457031 -7.476562 1.890625 -9.695312 1.890625 -12.21875 C 1.890625 -14.78125 2.457031 -17.019531 3.59375 -18.9375 C 4.738281 -20.851562 6.328125 -22.335938 8.359375 -23.390625 C 10.398438 -24.453125 12.722656 -24.984375 15.328125 -24.984375 C 17.984375 -24.984375 20.285156 -24.453125 22.234375 -23.390625 C 24.191406 -22.335938 25.71875 -20.863281 26.8125 -18.96875 C 27.914062 -17.070312 28.46875 -14.84375 28.46875 -12.28125 Z M 15.453125 -19 C 14.066406 -19 12.957031 -18.703125 12.125 -18.109375 C 11.289062 -17.523438 10.671875 -16.703125 10.265625 -15.640625 L 20.40625 -15.640625 C 20 -16.703125 19.394531 -17.523438 18.59375 -18.109375 C 17.800781 -18.703125 16.753906 -19 15.453125 -19 Z M 15.453125 -19 "/></g></g></g><g fill="#240784" fill-opacity="1"><g transform="translate(132.013378, 321.778656)"><g><path d="M 18.390625 -24.921875 C 20.015625 -24.921875 21.476562 -24.503906 22.78125 -23.671875 C 24.09375 -22.835938 25.144531 -21.707031 25.9375 -20.28125 C 26.726562 -18.851562 27.125 -17.242188 27.125 -15.453125 L 27.125 0 L 19.359375 0 L 19.359375 -14.171875 C 19.359375 -15.273438 19.003906 -16.191406 18.296875 -16.921875 C 17.585938 -17.648438 16.660156 -18.015625 15.515625 -18.015625 C 14.378906 -18.015625 13.410156 -17.648438 12.609375 -16.921875 C 11.816406 -16.191406 11.421875 -15.273438 11.421875 -14.171875 L 11.421875 0 L 3.609375 0 L 3.609375 -24.4375 L 11.421875 -24.4375 L 11.421875 -21.4375 C 12.273438 -22.5 13.300781 -23.34375 14.5 -23.96875 C 15.707031 -24.601562 17.003906 -24.921875 18.390625 -24.921875 Z M 18.390625 -24.921875 "/></g></g></g><g fill="#240784" fill-opacity="1"><g transform="translate(161.276258, 321.778656)"><g><path d="M 21.078125 0.484375 C 18.472656 0.484375 16.039062 0 13.78125 -0.96875 C 11.519531 -1.945312 9.519531 -3.300781 7.78125 -5.03125 C 6.050781 -6.769531 4.695312 -8.769531 3.71875 -11.03125 C 2.75 -13.289062 2.265625 -15.722656 2.265625 -18.328125 C 2.265625 -20.929688 2.75 -23.363281 3.71875 -25.625 C 4.695312 -27.882812 6.050781 -29.878906 7.78125 -31.609375 C 9.519531 -33.347656 11.519531 -34.703125 13.78125 -35.671875 C 16.039062 -36.648438 18.472656 -37.140625 21.078125 -37.140625 C 24.703125 -37.140625 28 -36.210938 30.96875 -34.359375 C 33.945312 -32.503906 36.207031 -30.070312 37.75 -27.0625 L 30.796875 -23.453125 C 29.898438 -25.210938 28.59375 -26.617188 26.875 -27.671875 C 25.164062 -28.734375 23.234375 -29.265625 21.078125 -29.265625 C 19.035156 -29.265625 17.191406 -28.785156 15.546875 -27.828125 C 13.898438 -26.867188 12.597656 -25.5625 11.640625 -23.90625 C 10.679688 -22.257812 10.203125 -20.398438 10.203125 -18.328125 C 10.203125 -16.253906 10.679688 -14.390625 11.640625 -12.734375 C 12.597656 -11.085938 13.898438 -9.785156 15.546875 -8.828125 C 17.191406 -7.867188 19.035156 -7.390625 21.078125 -7.390625 C 23.234375 -7.390625 25.164062 -7.914062 26.875 -8.96875 C 28.59375 -10.03125 29.898438 -11.441406 30.796875 -13.203125 L 37.75 -9.59375 C 36.207031 -6.613281 33.945312 -4.1875 30.96875 -2.3125 C 28 -0.445312 24.703125 0.484375 21.078125 0.484375 Z M 21.078125 0.484375 "/></g></g></g><g fill="#240784" fill-opacity="1"><g transform="translate(199.641882, 321.778656)"><g><path d="M 15.515625 0.484375 C 12.785156 0.484375 10.398438 -0.0625 8.359375 -1.15625 C 6.328125 -2.257812 4.738281 -3.765625 3.59375 -5.671875 C 2.457031 -7.585938 1.890625 -9.769531 1.890625 -12.21875 C 1.890625 -14.664062 2.457031 -16.84375 3.59375 -18.75 C 4.738281 -20.664062 6.328125 -22.171875 8.359375 -23.265625 C 10.398438 -24.367188 12.785156 -24.921875 15.515625 -24.921875 C 18.242188 -24.921875 20.625 -24.367188 22.65625 -23.265625 C 24.695312 -22.171875 26.273438 -20.664062 27.390625 -18.75 C 28.515625 -16.84375 29.078125 -14.664062 29.078125 -12.21875 C 29.078125 -9.769531 28.515625 -7.585938 27.390625 -5.671875 C 26.273438 -3.765625 24.695312 -2.257812 22.65625 -1.15625 C 20.625 -0.0625 18.242188 0.484375 15.515625 0.484375 Z M 15.515625 -6.421875 C 17.179688 -6.453125 18.566406 -7.019531 19.671875 -8.125 C 20.773438 -9.226562 21.328125 -10.59375 21.328125 -12.21875 C 21.328125 -13.882812 20.773438 -15.257812 19.671875 -16.34375 C 18.566406 -17.425781 17.179688 -17.984375 15.515625 -18.015625 C 13.847656 -17.984375 12.460938 -17.425781 11.359375 -16.34375 C 10.265625 -15.257812 9.71875 -13.882812 9.71875 -12.21875 C 9.71875 -10.59375 10.265625 -9.226562 11.359375 -8.125 C 12.460938 -7.019531 13.847656 -6.453125 15.515625 -6.421875 Z M 15.515625 -6.421875 "/></g></g></g><g fill="#240784" fill-opacity="1"><g transform="translate(229.698969, 321.778656)"><g><path d="M 18.390625 -24.921875 C 20.015625 -24.921875 21.476562 -24.503906 22.78125 -23.671875 C 24.09375 -22.835938 25.144531 -21.707031 25.9375 -20.28125 C 26.726562 -18.851562 27.125 -17.242188 27.125 -15.453125 L 27.125 0 L 19.359375 0 L 19.359375 -14.171875 C 19.359375 -15.273438 19.003906 -16.191406 18.296875 -16.921875 C 17.585938 -17.648438 16.660156 -18.015625 15.515625 -18.015625 C 14.378906 -18.015625 13.410156 -17.648438 12.609375 -16.921875 C 11.816406 -16.191406 11.421875 -15.273438 11.421875 -14.171875 L 11.421875 0 L 3.609375 0 L 3.609375 -24.4375 L 11.421875 -24.4375 L 11.421875 -21.4375 C 12.273438 -22.5 13.300781 -23.34375 14.5 -23.96875 C 15.707031 -24.601562 17.003906 -24.921875 18.390625 -24.921875 Z M 18.390625 -24.921875 "/></g></g></g><g fill="#240784" fill-opacity="1"><g transform="translate(258.961861, 321.778656)"><g><path d="M 18.328125 -18.390625 L 12.53125 -18.390625 L 12.53125 -9.65625 C 12.53125 -8.632812 12.789062 -7.828125 13.3125 -7.234375 C 13.84375 -6.648438 14.515625 -6.359375 15.328125 -6.359375 L 18.265625 -6.359375 L 18.265625 -0.3125 C 17.984375 -0.101562 17.460938 0.078125 16.703125 0.234375 C 15.953125 0.398438 15.171875 0.484375 14.359375 0.484375 C 12.648438 0.484375 11.0625 0.078125 9.59375 -0.734375 C 8.125 -1.546875 6.953125 -2.65625 6.078125 -4.0625 C 5.203125 -5.46875 4.765625 -7.023438 4.765625 -8.734375 L 4.765625 -18.390625 L 0.671875 -18.390625 L 0.671875 -24.4375 L 4.765625 -24.4375 L 4.765625 -33.84375 L 12.53125 -33.84375 L 12.53125 -24.4375 L 18.328125 -24.4375 Z M 18.328125 -18.390625 "/></g></g></g><g fill="#240784" fill-opacity="1"><g transform="translate(277.533615, 321.778656)"><g><path d="M 18.265625 -24.921875 C 18.628906 -24.921875 18.984375 -24.898438 19.328125 -24.859375 C 19.679688 -24.816406 20 -24.757812 20.28125 -24.6875 L 20.28125 -17.78125 C 20 -17.863281 19.660156 -17.921875 19.265625 -17.953125 C 18.878906 -17.992188 18.460938 -18.015625 18.015625 -18.015625 C 16.109375 -18.015625 14.53125 -17.460938 13.28125 -16.359375 C 12.039062 -15.265625 11.421875 -13.703125 11.421875 -11.671875 L 11.421875 0 L 3.609375 0 L 3.609375 -24.4375 L 11.421875 -24.4375 L 11.421875 -21.078125 C 12.234375 -22.253906 13.21875 -23.1875 14.375 -23.875 C 15.539062 -24.570312 16.835938 -24.921875 18.265625 -24.921875 Z M 18.265625 -24.921875 "/></g></g></g><g fill="#240784" fill-opacity="1"><g transform="translate(296.716282, 321.778656)"><g><path d="M 15.515625 0.484375 C 12.785156 0.484375 10.398438 -0.0625 8.359375 -1.15625 C 6.328125 -2.257812 4.738281 -3.765625 3.59375 -5.671875 C 2.457031 -7.585938 1.890625 -9.769531 1.890625 -12.21875 C 1.890625 -14.664062 2.457031 -16.84375 3.59375 -18.75 C 4.738281 -20.664062 6.328125 -22.171875 8.359375 -23.265625 C 10.398438 -24.367188 12.785156 -24.921875 15.515625 -24.921875 C 18.242188 -24.921875 20.625 -24.367188 22.65625 -23.265625 C 24.695312 -22.171875 26.273438 -20.664062 27.390625 -18.75 C 28.515625 -16.84375 29.078125 -14.664062 29.078125 -12.21875 C 29.078125 -9.769531 28.515625 -7.585938 27.390625 -5.671875 C 26.273438 -3.765625 24.695312 -2.257812 22.65625 -1.15625 C 20.625 -0.0625 18.242188 0.484375 15.515625 0.484375 Z M 15.515625 -6.421875 C 17.179688 -6.453125 18.566406 -7.019531 19.671875 -8.125 C 20.773438 -9.226562 21.328125 -10.59375 21.328125 -12.21875 C 21.328125 -13.882812 20.773438 -15.257812 19.671875 -16.34375 C 18.566406 -17.425781 17.179688 -17.984375 15.515625 -18.015625 C 13.847656 -17.984375 12.460938 -17.425781 11.359375 -16.34375 C 10.265625 -15.257812 9.71875 -13.882812 9.71875 -12.21875 C 9.71875 -10.59375 10.265625 -9.226562 11.359375 -8.125 C 12.460938 -7.019531 13.847656 -6.453125 15.515625 -6.421875 Z M 15.515625 -6.421875 "/></g></g></g><g fill="#240784" fill-opacity="1"><g transform="translate(326.773381, 321.778656)"><g><path d="M 3.609375 0 L 3.609375 -41.84375 L 11.421875 -41.84375 L 11.421875 0 Z M 3.609375 0 "/></g></g></g><g fill="#240784" fill-opacity="1"><g transform="translate(102.506051, 355.154356)"><g><path d="M 8.6875 -12.96875 L 8.6875 0 L 6.09375 0 L 6.09375 -10.25 L 2.3125 -8.15625 L 2.3125 -10.59375 L 5.3125 -12.390625 C 6.007812 -12.773438 6.707031 -12.96875 7.40625 -12.96875 Z M 8.6875 -12.96875 "/></g></g></g><g fill="#240784" fill-opacity="1"><g transform="translate(116.509807, 355.154356)"><g><path d="M 5.890625 -13.234375 C 9.242188 -13.234375 10.921875 -10.984375 10.921875 -6.484375 C 10.921875 -1.984375 9.242188 0.265625 5.890625 0.265625 C 2.515625 0.265625 0.828125 -1.984375 0.828125 -6.484375 C 0.828125 -10.984375 2.515625 -13.234375 5.890625 -13.234375 Z M 4.140625 -2.84375 C 4.515625 -2.0625 5.09375 -1.671875 5.875 -1.671875 C 6.664062 -1.671875 7.242188 -2.0625 7.609375 -2.84375 C 7.984375 -3.625 8.171875 -4.835938 8.171875 -6.484375 C 8.171875 -8.140625 7.984375 -9.351562 7.609375 -10.125 C 7.242188 -10.90625 6.671875 -11.296875 5.890625 -11.296875 C 5.085938 -11.296875 4.5 -10.90625 4.125 -10.125 C 3.757812 -9.351562 3.578125 -8.140625 3.578125 -6.484375 C 3.578125 -4.835938 3.765625 -3.625 4.140625 -2.84375 Z M 4.140625 -2.84375 "/></g></g></g><g fill="#240784" fill-opacity="1"><g transform="translate(130.513563, 355.154356)"><g><path d="M 5.890625 -13.234375 C 9.242188 -13.234375 10.921875 -10.984375 10.921875 -6.484375 C 10.921875 -1.984375 9.242188 0.265625 5.890625 0.265625 C 2.515625 0.265625 0.828125 -1.984375 0.828125 -6.484375 C 0.828125 -10.984375 2.515625 -13.234375 5.890625 -13.234375 Z M 4.140625 -2.84375 C 4.515625 -2.0625 5.09375 -1.671875 5.875 -1.671875 C 6.664062 -1.671875 7.242188 -2.0625 7.609375 -2.84375 C 7.984375 -3.625 8.171875 -4.835938 8.171875 -6.484375 C 8.171875 -8.140625 7.984375 -9.351562 7.609375 -10.125 C 7.242188 -10.90625 6.671875 -11.296875 5.890625 -11.296875 C 5.085938 -11.296875 4.5 -10.90625 4.125 -10.125 C 3.757812 -9.351562 3.578125 -8.140625 3.578125 -6.484375 C 3.578125 -4.835938 3.765625 -3.625 4.140625 -2.84375 Z M 4.140625 -2.84375 "/></g></g></g><g fill="#240784" fill-opacity="1"><g transform="translate(144.51732, 355.154356)"><g><path d="M 1.4375 -12.375 C 1.957031 -12.925781 2.664062 -13.203125 3.5625 -13.203125 C 4.46875 -13.203125 5.179688 -12.925781 5.703125 -12.375 C 6.222656 -11.832031 6.484375 -11.078125 6.484375 -10.109375 C 6.484375 -9.148438 6.222656 -8.394531 5.703125 -7.84375 C 5.179688 -7.289062 4.472656 -7.015625 3.578125 -7.015625 C 2.679688 -7.015625 1.972656 -7.289062 1.453125 -7.84375 C 0.929688 -8.394531 0.671875 -9.148438 0.671875 -10.109375 C 0.671875 -11.078125 0.925781 -11.832031 1.4375 -12.375 Z M 4.015625 0 L 2.015625 0 L 10.4375 -12.96875 L 12.4375 -12.96875 Z M 3.578125 -11.828125 C 2.859375 -11.828125 2.5 -11.253906 2.5 -10.109375 C 2.5 -8.960938 2.859375 -8.390625 3.578125 -8.390625 C 4.296875 -8.390625 4.65625 -8.960938 4.65625 -10.109375 C 4.65625 -11.253906 4.296875 -11.828125 3.578125 -11.828125 Z M 8.640625 -5.09375 C 9.160156 -5.644531 9.867188 -5.921875 10.765625 -5.921875 C 11.671875 -5.921875 12.382812 -5.644531 12.90625 -5.09375 C 13.425781 -4.550781 13.6875 -3.796875 13.6875 -2.828125 C 13.6875 -1.867188 13.425781 -1.113281 12.90625 -0.5625 C 12.382812 -0.0078125 11.671875 0.265625 10.765625 0.265625 C 9.867188 0.265625 9.160156 -0.0078125 8.640625 -0.5625 C 8.117188 -1.113281 7.859375 -1.867188 7.859375 -2.828125 C 7.859375 -3.796875 8.117188 -4.550781 8.640625 -5.09375 Z M 11.84375 -2.84375 C 11.84375 -3.976562 11.484375 -4.546875 10.765625 -4.546875 C 10.054688 -4.546875 9.703125 -3.976562 9.703125 -2.84375 C 9.703125 -1.6875 10.054688 -1.109375 10.765625 -1.109375 C 11.484375 -1.109375 11.84375 -1.6875 11.84375 -2.84375 Z M 11.84375 -2.84375 "/></g></g></g><g fill="#240784" fill-opacity="1"><g transform="translate(161.114901, 355.154356)"><g/></g></g><g fill="#240784" fill-opacity="1"><g transform="translate(167.017666, 355.154356)"><g><path d="M 7.234375 -13.234375 C 8.929688 -13.234375 10.253906 -12.820312 11.203125 -12 C 12.148438 -11.175781 12.695312 -10.097656 12.84375 -8.765625 L 12.859375 -8.578125 L 10.265625 -8.578125 L 10.21875 -8.765625 C 9.882812 -10.453125 8.878906 -11.296875 7.203125 -11.296875 C 6.148438 -11.296875 5.300781 -10.875 4.65625 -10.03125 C 4.019531 -9.1875 3.703125 -8.03125 3.703125 -6.5625 C 3.703125 -4.988281 4.019531 -3.78125 4.65625 -2.9375 C 5.300781 -2.09375 6.132812 -1.671875 7.15625 -1.671875 C 7.988281 -1.671875 8.65625 -1.898438 9.15625 -2.359375 C 9.65625 -2.828125 9.992188 -3.472656 10.171875 -4.296875 L 10.203125 -4.5 L 12.78125 -4.5 L 12.765625 -4.296875 C 12.628906 -2.898438 12.050781 -1.789062 11.03125 -0.96875 C 10.019531 -0.144531 8.691406 0.265625 7.046875 0.265625 C 5.210938 0.265625 3.738281 -0.332031 2.625 -1.53125 C 1.507812 -2.738281 0.953125 -4.363281 0.953125 -6.40625 C 0.953125 -8.488281 1.539062 -10.144531 2.71875 -11.375 C 3.90625 -12.613281 5.410156 -13.234375 7.234375 -13.234375 Z M 7.234375 -13.234375 "/></g></g></g><g fill="#240784" fill-opacity="1"><g transform="translate(182.769438, 355.154356)"><g><path d="M 7.375 -13.234375 C 9.351562 -13.234375 10.914062 -12.617188 12.0625 -11.390625 C 13.207031 -10.171875 13.78125 -8.535156 13.78125 -6.484375 C 13.78125 -4.441406 13.207031 -2.804688 12.0625 -1.578125 C 10.914062 -0.347656 9.351562 0.265625 7.375 0.265625 C 5.394531 0.265625 3.828125 -0.347656 2.671875 -1.578125 C 1.523438 -2.804688 0.953125 -4.441406 0.953125 -6.484375 C 0.953125 -8.535156 1.519531 -10.171875 2.65625 -11.390625 C 3.800781 -12.617188 5.375 -13.234375 7.375 -13.234375 Z M 4.65625 -2.9375 C 5.3125 -2.09375 6.210938 -1.671875 7.359375 -1.671875 C 8.515625 -1.671875 9.414062 -2.097656 10.0625 -2.953125 C 10.71875 -3.804688 11.046875 -4.984375 11.046875 -6.484375 C 11.046875 -8.003906 10.71875 -9.1875 10.0625 -10.03125 C 9.414062 -10.875 8.519531 -11.296875 7.375 -11.296875 C 6.207031 -11.296875 5.296875 -10.875 4.640625 -10.03125 C 3.992188 -9.1875 3.671875 -8.003906 3.671875 -6.484375 C 3.671875 -4.960938 4 -3.78125 4.65625 -2.9375 Z M 4.65625 -2.9375 "/></g></g></g><g fill="#240784" fill-opacity="1"><g transform="translate(199.404613, 355.154356)"><g><path d="M 13.0625 0 L 9.515625 0 L 4.171875 -9.84375 C 4.234375 -8.664062 4.265625 -7.335938 4.265625 -5.859375 L 4.265625 0 L 1.671875 0 L 1.671875 -12.96875 L 5.109375 -12.96875 L 10.5625 -2.9375 C 10.5 -4.101562 10.46875 -5.460938 10.46875 -7.015625 L 10.46875 -12.96875 L 13.046875 -12.96875 Z M 13.0625 0 "/></g></g></g><g fill="#240784" fill-opacity="1"><g transform="translate(215.945799, 355.154356)"><g><path d="M 11.828125 -10.9375 L 7.421875 -10.9375 L 7.421875 0 L 4.828125 0 L 4.828125 -10.9375 L 0.4375 -10.9375 L 0.4375 -12.96875 L 11.828125 -12.96875 Z M 11.828125 -10.9375 "/></g></g></g><g fill="#240784" fill-opacity="1"><g transform="translate(229.911966, 355.154356)"><g><path d="M 11.078125 -3.265625 C 11.234375 -1.722656 11.546875 -0.632812 12.015625 0 L 9.171875 0 C 8.859375 -0.863281 8.644531 -1.828125 8.53125 -2.890625 C 8.351562 -4.359375 7.769531 -5.128906 6.78125 -5.203125 C 6.539062 -5.210938 6.203125 -5.21875 5.765625 -5.21875 L 4.265625 -5.21875 L 4.265625 0 L 1.671875 0 L 1.671875 -12.96875 L 6.40625 -12.96875 C 7.125 -12.96875 7.753906 -12.9375 8.296875 -12.875 C 9.316406 -12.75 10.132812 -12.40625 10.75 -11.84375 C 11.375 -11.289062 11.6875 -10.488281 11.6875 -9.4375 C 11.6875 -8.625 11.460938 -7.945312 11.015625 -7.40625 C 10.566406 -6.875 9.945312 -6.5 9.15625 -6.28125 C 10.269531 -5.851562 10.910156 -4.847656 11.078125 -3.265625 Z M 4.265625 -7.15625 L 6.046875 -7.15625 C 6.566406 -7.15625 6.921875 -7.164062 7.109375 -7.1875 C 8.347656 -7.289062 8.96875 -7.910156 8.96875 -9.046875 C 8.96875 -9.628906 8.816406 -10.0625 8.515625 -10.34375 C 8.222656 -10.625 7.800781 -10.804688 7.25 -10.890625 C 6.945312 -10.921875 6.585938 -10.9375 6.171875 -10.9375 L 4.265625 -10.9375 Z M 4.265625 -7.15625 "/></g></g></g><g fill="#240784" fill-opacity="1"><g transform="translate(244.460813, 355.154356)"><g><path d="M 7.375 -13.234375 C 9.351562 -13.234375 10.914062 -12.617188 12.0625 -11.390625 C 13.207031 -10.171875 13.78125 -8.535156 13.78125 -6.484375 C 13.78125 -4.441406 13.207031 -2.804688 12.0625 -1.578125 C 10.914062 -0.347656 9.351562 0.265625 7.375 0.265625 C 5.394531 0.265625 3.828125 -0.347656 2.671875 -1.578125 C 1.523438 -2.804688 0.953125 -4.441406 0.953125 -6.484375 C 0.953125 -8.535156 1.519531 -10.171875 2.65625 -11.390625 C 3.800781 -12.617188 5.375 -13.234375 7.375 -13.234375 Z M 4.65625 -2.9375 C 5.3125 -2.09375 6.210938 -1.671875 7.359375 -1.671875 C 8.515625 -1.671875 9.414062 -2.097656 10.0625 -2.953125 C 10.71875 -3.804688 11.046875 -4.984375 11.046875 -6.484375 C 11.046875 -8.003906 10.71875 -9.1875 10.0625 -10.03125 C 9.414062 -10.875 8.519531 -11.296875 7.375 -11.296875 C 6.207031 -11.296875 5.296875 -10.875 4.640625 -10.03125 C 3.992188 -9.1875 3.671875 -8.003906 3.671875 -6.484375 C 3.671875 -4.960938 4 -3.78125 4.65625 -2.9375 Z M 4.65625 -2.9375 "/></g></g></g><g fill="#240784" fill-opacity="1"><g transform="translate(261.095993, 355.154356)"><g><path d="M 11.03125 -2.15625 L 11.03125 0 L 1.671875 0 L 1.671875 -12.96875 L 4.265625 -12.96875 L 4.265625 -2.15625 Z M 11.03125 -2.15625 "/></g></g></g></svg>