<svg xmlns="http://www.w3.org/2000/svg" xmlns:xlink="http://www.w3.org/1999/xlink" width="500" zoomAndPan="magnify" viewBox="0 0 375 374.999991" height="500" preserveAspectRatio="xMidYMid meet" version="1.0"><defs><clipPath id="67c37200f5"><path d="M 3 10 L 371.964844 10 L 371.964844 365 L 3 365 Z M 3 10 " clip-rule="nonzero"/></clipPath></defs><g clip-path="url(#67c37200f5)"><path fill="#240784" d="M 224.042969 353.808594 C 224.042969 348.882812 227.265625 344.5 231.996094 343.144531 C 300.660156 323.5 349.371094 259.664062 349.285156 187.304688 C 349.199219 115.253906 300.503906 51.640625 232.011719 32 C 227.265625 30.636719 224.042969 26.246094 224.042969 21.304688 C 224.042969 13.898438 231.121094 8.523438 238.246094 10.550781 C 316.46875 32.835938 371.546875 104.367188 371.640625 187.210938 C 371.765625 270.390625 316.664062 342.199219 238.207031 364.519531 C 231.105469 366.550781 224.042969 361.191406 224.042969 353.808594 Z M 150.871094 353.808594 C 150.871094 348.882812 147.648438 344.5 142.914062 343.136719 C 74.4375 323.515625 25.78125 259.894531 25.734375 187.832031 C 25.609375 115.472656 74.269531 51.617188 142.914062 31.953125 C 147.648438 30.597656 150.871094 26.207031 150.871094 21.289062 C 150.871094 13.898438 143.796875 8.539062 136.695312 10.566406 C 58.265625 32.929688 3.179688 104.738281 3.273438 187.886719 C 3.394531 270.761719 58.488281 342.292969 136.695312 364.535156 C 143.796875 366.558594 150.871094 361.191406 150.871094 353.808594 Z M 334.515625 187.328125 C 334.601562 268.578125 268.886719 334.492188 187.738281 334.585938 C 106.535156 334.722656 40.566406 269.003906 40.410156 187.753906 C 40.3125 106.496094 106.078125 40.558594 187.226562 40.472656 C 268.40625 40.332031 334.40625 106.09375 334.515625 187.328125 Z M 229.796875 140.257812 C 229.789062 135.183594 232.695312 130.5625 237.269531 128.382812 L 281.839844 107.152344 C 252.933594 73.546875 215.097656 63.492188 187.28125 63.539062 C 118.882812 63.632812 63.433594 119.246094 63.539062 187.730469 C 63.5625 209.0625 68.984375 229.097656 78.519531 246.597656 L 78.449219 212.035156 C 78.441406 206.953125 81.363281 202.332031 85.949219 200.152344 L 125.914062 181.207031 C 134.613281 177.085938 144.644531 183.414062 144.660156 193.042969 L 144.820312 285.5 L 144.820312 303.804688 C 147.933594 304.949219 151.085938 306.003906 154.308594 306.902344 L 154.308594 271.457031 L 154.324219 271.457031 L 154.046875 176.195312 C 154.03125 171.109375 156.957031 166.476562 161.550781 164.300781 L 201.617188 145.332031 C 210.316406 141.21875 220.339844 147.546875 220.355469 157.167969 L 220.5625 271.457031 L 220.59375 271.457031 L 220.59375 306.941406 C 223.832031 306.042969 227 304.980469 230.128906 303.828125 L 230.128906 287.105469 Z M 296.316406 246.875 C 305.957031 229.199219 311.441406 208.929688 311.402344 187.351562 C 311.378906 165.789062 305.851562 145.5 296.089844 127.835938 Z M 296.316406 246.875 " fill-opacity="1" fill-rule="nonzero"/></g></svg>